<svg id="svg" version="1.1" xmlns="http://www.w3.org/2000/svg" xmlns:xlink="http://www.w3.org/1999/xlink" width="400" height="347.5285171102662" viewBox="0, 0, 400,347.5285171102662"><g id="svgg"><path id="path0" d="M54.261 0.324 C 54.261 0.502,53.478 0.577,52.522 0.490 C 51.203 0.370,50.783 0.447,50.783 0.810 C 50.783 1.158,50.406 1.249,49.387 1.147 C 48.356 1.044,47.938 1.148,47.785 1.547 C 47.642 1.919,47.112 2.087,46.079 2.087 C 45.254 2.087,44.521 2.263,44.449 2.478 C 44.378 2.693,43.898 2.870,43.383 2.870 C 42.869 2.870,42.532 3.007,42.636 3.174 C 42.739 3.341,42.345 3.478,41.760 3.478 C 41.174 3.478,40.696 3.635,40.696 3.826 C 40.696 4.017,40.461 4.174,40.174 4.174 C 39.887 4.174,39.640 4.448,39.625 4.783 C 39.608 5.145,39.526 5.216,39.422 4.957 C 39.221 4.459,37.599 4.723,37.037 5.346 C 36.506 5.934,35.211 6.609,34.613 6.609 C 34.324 6.609,34.087 6.765,34.087 6.957 C 34.087 7.148,33.843 7.304,33.545 7.304 C 33.203 7.304,33.099 7.466,33.264 7.739 C 33.441 8.035,33.336 8.021,32.936 7.697 C 32.432 7.287,32.348 7.295,32.348 7.753 C 32.348 8.064,32.095 8.248,31.739 8.193 C 31.404 8.142,30.782 8.473,30.357 8.928 C 29.931 9.383,29.462 9.765,29.313 9.776 C 29.165 9.788,28.965 9.887,28.870 9.998 C 28.774 10.108,28.891 10.086,29.130 9.948 C 29.370 9.811,29.565 9.864,29.565 10.066 C 29.565 10.269,29.276 10.435,28.923 10.435 C 28.338 10.435,26.838 11.712,27.043 12.037 C 27.091 12.112,27.052 12.174,26.957 12.174 C 26.861 12.174,26.685 12.174,26.566 12.174 C 26.447 12.174,26.544 11.939,26.783 11.652 C 27.082 11.292,27.095 11.130,26.825 11.130 C 26.610 11.130,26.435 11.287,26.435 11.478 C 26.435 11.670,26.161 11.828,25.826 11.831 C 25.306 11.836,25.293 11.886,25.739 12.174 C 26.212 12.479,25.988 12.673,25.295 12.560 C 25.146 12.535,24.934 12.751,24.823 13.038 C 24.713 13.326,24.483 13.475,24.311 13.369 C 24.140 13.263,24.000 13.332,24.000 13.521 C 24.000 13.711,23.687 13.966,23.304 14.087 C 22.922 14.208,22.609 14.527,22.609 14.795 C 22.609 15.101,22.399 15.202,22.047 15.067 C 21.592 14.892,21.530 15.010,21.722 15.687 C 21.898 16.307,21.868 16.390,21.608 16.011 C 21.311 15.580,21.145 15.629,20.541 16.325 C 19.671 17.328,19.656 17.435,20.423 17.140 C 20.953 16.937,20.963 16.974,20.510 17.464 C 20.230 17.768,19.951 17.971,19.892 17.915 C 19.708 17.741,17.919 19.636,18.006 19.913 C 18.050 20.057,17.930 20.174,17.739 20.174 C 17.548 20.174,17.391 20.006,17.391 19.801 C 17.391 19.596,17.147 19.673,16.847 19.972 C 16.548 20.272,16.416 20.698,16.553 20.921 C 16.709 21.173,16.651 21.231,16.399 21.075 C 16.177 20.938,15.723 21.097,15.392 21.428 C 14.958 21.862,14.910 22.071,15.220 22.175 C 15.883 22.396,15.733 23.001,15.043 22.885 C 14.641 22.817,14.398 23.041,14.326 23.546 C 14.258 24.024,14.040 24.241,13.743 24.127 C 13.411 24.000,13.322 24.150,13.447 24.629 C 13.545 25.005,13.457 25.417,13.252 25.544 C 13.021 25.687,12.957 25.569,13.085 25.235 C 13.199 24.939,13.175 24.696,13.032 24.696 C 12.557 24.696,11.848 25.901,11.837 26.728 C 11.830 27.245,11.572 27.610,11.130 27.725 C 10.748 27.825,10.435 28.057,10.435 28.239 C 10.435 28.422,10.188 28.818,9.886 29.120 C 9.584 29.422,9.416 29.971,9.513 30.340 C 9.638 30.819,9.546 30.957,9.192 30.821 C 8.919 30.716,8.696 30.782,8.696 30.967 C 8.696 31.153,8.847 31.304,9.033 31.304 C 9.218 31.304,9.278 31.543,9.166 31.835 C 9.027 32.196,8.832 32.258,8.554 32.027 C 8.082 31.635,7.145 32.851,7.489 33.408 C 7.603 33.593,7.452 33.838,7.152 33.953 C 6.853 34.067,6.609 34.458,6.609 34.820 C 6.609 35.182,6.452 35.478,6.261 35.478 C 6.070 35.478,5.913 35.775,5.913 36.137 C 5.913 36.499,5.699 36.877,5.437 36.978 C 5.176 37.078,4.885 37.560,4.792 38.048 C 4.699 38.536,4.756 38.853,4.920 38.752 C 5.083 38.650,5.217 38.812,5.217 39.110 C 5.217 39.408,4.964 39.652,4.655 39.652 C 4.271 39.652,4.148 39.865,4.268 40.322 C 4.393 40.799,4.300 40.937,3.946 40.801 C 3.574 40.658,3.489 40.832,3.610 41.496 C 3.716 42.082,3.590 42.451,3.237 42.586 C 2.783 42.761,2.774 42.877,3.178 43.375 C 3.504 43.778,3.517 43.878,3.217 43.698 C 2.907 43.512,2.783 43.743,2.783 44.501 C 2.783 45.086,2.626 45.565,2.435 45.565 C 2.243 45.565,2.087 46.035,2.087 46.609 C 2.087 47.304,1.913 47.652,1.565 47.652 C 1.278 47.652,1.043 47.896,1.043 48.194 C 1.043 48.536,1.205 48.640,1.478 48.475 C 1.794 48.286,1.787 48.370,1.453 48.782 C 1.200 49.094,1.043 49.711,1.105 50.153 C 1.172 50.630,1.051 50.925,0.807 50.878 C 0.522 50.823,0.441 51.321,0.540 52.514 C 0.618 53.457,0.529 54.323,0.341 54.439 C 0.121 54.575,0.000 73.457,0.000 107.847 L 0.000 161.043 13.523 161.043 C 26.968 161.043,28.411 160.925,27.652 159.878 C 27.560 159.751,27.677 159.811,27.913 160.012 C 28.249 160.298,28.230 160.448,27.823 160.705 C 27.383 160.983,27.397 161.034,27.913 161.038 C 28.490 161.043,28.522 158.478,28.522 112.000 C 28.522 73.000,28.433 62.955,28.087 62.951 C 27.753 62.947,27.757 62.880,28.104 62.659 C 28.383 62.482,28.524 61.816,28.471 60.924 C 28.424 60.127,28.573 59.288,28.801 59.059 C 29.030 58.831,29.217 58.080,29.217 57.391 C 29.217 56.703,29.413 55.928,29.652 55.671 C 30.000 55.296,30.000 55.251,29.652 55.448 C 28.959 55.839,29.601 54.099,30.357 53.539 C 30.506 53.429,30.662 52.862,30.705 52.279 C 30.755 51.596,30.937 51.279,31.217 51.386 C 31.457 51.478,31.652 51.379,31.652 51.168 C 31.652 50.956,31.464 50.783,31.235 50.783 C 30.926 50.783,30.919 50.681,31.208 50.392 C 31.422 50.178,31.515 49.786,31.414 49.523 C 31.313 49.259,31.412 49.043,31.635 49.043 C 31.859 49.043,31.944 49.200,31.826 49.391 C 31.708 49.583,31.795 49.739,32.020 49.739 C 32.258 49.739,32.353 49.448,32.247 49.043 C 32.129 48.591,32.236 48.348,32.554 48.348 C 32.823 48.348,33.043 48.035,33.043 47.652 C 33.043 47.270,33.183 46.957,33.353 46.957 C 33.523 46.957,33.640 46.683,33.614 46.348 C 33.587 46.013,33.761 45.778,34.000 45.826 C 34.239 45.874,34.435 45.600,34.435 45.217 C 34.435 44.831,34.667 44.522,34.957 44.522 C 35.251 44.522,35.478 44.210,35.478 43.806 C 35.478 43.353,35.331 43.181,35.077 43.338 C 34.820 43.496,34.770 43.432,34.938 43.160 C 35.083 42.927,35.420 42.819,35.687 42.922 C 35.955 43.025,36.174 42.907,36.174 42.660 C 36.174 42.413,36.896 41.596,37.779 40.845 C 40.625 38.423,41.434 37.350,40.087 37.783 C 39.591 37.942,39.572 37.913,39.983 37.621 C 40.261 37.424,40.612 37.340,40.763 37.433 C 41.099 37.641,42.783 36.007,42.783 35.474 C 42.783 35.262,42.927 35.179,43.104 35.288 C 43.506 35.536,45.217 34.783,45.217 34.358 C 45.217 34.187,45.345 34.125,45.502 34.222 C 45.658 34.318,46.006 34.093,46.274 33.721 C 46.543 33.348,47.062 33.043,47.427 33.043 C 47.793 33.043,48.385 32.706,48.742 32.295 C 49.178 31.792,49.393 31.706,49.397 32.034 C 49.400 32.368,49.482 32.398,49.658 32.127 C 49.798 31.910,50.195 31.675,50.540 31.605 C 50.885 31.535,51.169 31.322,51.172 31.130 C 51.178 30.645,52.566 29.952,53.113 30.162 C 53.362 30.257,53.565 30.136,53.565 29.892 C 53.565 29.649,53.668 29.552,53.794 29.678 C 53.920 29.804,54.233 29.733,54.490 29.520 C 54.840 29.229,54.957 29.247,54.957 29.592 C 54.957 29.950,55.049 29.959,55.374 29.635 C 55.603 29.405,56.355 29.217,57.043 29.217 C 57.732 29.217,58.459 29.054,58.659 28.854 C 58.910 28.603,76.627 28.497,115.468 28.514 C 169.095 28.536,171.936 28.506,172.396 27.921 C 172.662 27.582,172.838 27.461,172.788 27.652 C 172.737 27.843,172.852 28.000,173.043 28.000 C 173.235 28.000,173.370 27.806,173.344 27.569 C 173.317 27.332,173.435 27.224,173.604 27.329 C 173.782 27.438,173.913 21.677,173.913 13.760 L 173.913 0.000 114.087 0.000 C 77.357 0.000,54.261 0.125,54.261 0.324 M199.652 14.255 L 199.652 28.522 269.739 28.522 C 319.457 28.522,339.826 28.630,339.826 28.895 C 339.826 29.126,340.517 29.232,341.629 29.173 C 342.878 29.107,343.478 29.218,343.584 29.535 C 343.708 29.906,343.792 29.903,344.037 29.518 C 344.257 29.170,344.339 29.160,344.342 29.478 C 344.346 29.728,344.791 29.913,345.391 29.913 C 346.124 29.913,346.435 30.082,346.435 30.480 C 346.435 30.934,346.678 31.008,347.648 30.851 C 348.428 30.724,348.955 30.808,349.126 31.086 C 349.272 31.323,349.783 31.520,350.261 31.523 C 350.775 31.525,351.091 31.706,351.035 31.964 C 350.971 32.255,351.173 32.326,351.643 32.177 C 352.066 32.043,352.348 32.110,352.348 32.345 C 352.348 32.560,352.191 32.640,352.000 32.522 C 351.809 32.404,351.652 32.473,351.652 32.675 C 351.652 32.878,351.986 33.043,352.394 33.043 C 352.802 33.043,353.389 33.329,353.698 33.677 C 354.008 34.025,354.770 34.607,355.391 34.969 C 356.013 35.332,356.522 35.751,356.522 35.901 C 356.522 36.051,356.766 36.174,357.064 36.174 C 357.397 36.174,357.511 36.006,357.361 35.739 C 357.226 35.500,357.451 35.650,357.862 36.072 C 358.273 36.495,358.609 37.020,358.609 37.240 C 358.609 37.460,358.836 37.553,359.113 37.446 C 359.425 37.326,359.553 37.420,359.448 37.692 C 359.215 38.300,360.551 39.434,361.204 39.184 C 361.499 39.071,361.739 39.130,361.739 39.315 C 361.739 39.501,361.575 39.652,361.375 39.652 C 360.801 39.652,362.606 41.306,363.340 41.451 C 363.796 41.542,363.966 41.822,363.891 42.356 C 363.831 42.782,363.938 43.130,364.129 43.130 C 364.319 43.130,364.572 43.435,364.690 43.808 C 364.808 44.181,365.210 44.583,365.583 44.701 C 366.010 44.837,366.261 45.229,366.261 45.763 C 366.261 46.228,366.417 46.609,366.609 46.609 C 366.800 46.609,366.957 46.839,366.957 47.120 C 366.957 47.432,367.160 47.552,367.482 47.429 C 367.877 47.277,367.976 47.431,367.882 48.048 C 367.812 48.509,368.001 49.071,368.313 49.330 C 368.619 49.583,368.676 49.693,368.439 49.573 C 368.160 49.432,368.078 49.538,368.207 49.873 C 368.316 50.158,368.627 50.306,368.898 50.202 C 369.169 50.098,369.391 50.186,369.391 50.398 C 369.391 50.609,369.235 50.783,369.043 50.783 C 368.852 50.783,368.696 50.939,368.696 51.130 C 368.696 51.322,368.921 51.478,369.197 51.478 C 369.473 51.478,369.810 51.659,369.946 51.880 C 370.099 52.127,370.042 52.187,369.797 52.036 C 369.540 51.877,369.472 51.980,369.606 52.328 C 369.719 52.624,369.976 52.764,370.177 52.640 C 370.395 52.505,370.438 52.582,370.285 52.831 C 370.143 53.060,370.236 53.506,370.492 53.821 C 370.885 54.306,370.880 54.348,370.463 54.097 C 370.077 53.864,370.028 53.945,370.238 54.465 C 370.785 55.818,371.061 56.996,370.875 57.183 C 370.770 57.288,370.855 57.581,371.065 57.835 C 371.275 58.088,371.487 58.884,371.535 59.605 C 371.584 60.326,371.846 61.041,372.117 61.193 C 372.465 61.387,372.495 61.541,372.219 61.712 C 372.003 61.845,371.826 62.111,371.826 62.302 C 371.826 62.493,371.943 62.577,372.087 62.488 C 372.230 62.400,372.307 84.538,372.256 111.685 L 372.165 161.043 386.083 161.043 L 400.000 161.043 400.000 107.896 C 400.000 65.859,399.909 54.650,399.565 54.279 C 399.217 53.905,399.217 53.860,399.565 54.056 C 400.079 54.346,400.161 53.706,399.651 53.391 C 399.459 53.272,399.399 52.787,399.518 52.313 C 399.672 51.698,399.602 51.480,399.273 51.552 C 399.006 51.610,398.788 51.321,398.757 50.870 C 398.728 50.439,398.839 50.087,399.004 50.087 C 399.169 50.087,399.304 50.270,399.304 50.493 C 399.304 50.716,399.395 50.808,399.506 50.697 C 399.617 50.586,399.487 50.129,399.217 49.682 C 398.948 49.235,398.757 48.521,398.794 48.096 C 398.831 47.671,398.726 47.406,398.561 47.508 C 398.396 47.610,398.261 47.227,398.261 46.658 C 398.261 46.088,398.166 45.375,398.050 45.072 C 397.760 44.318,397.191 44.372,397.435 45.130 C 397.571 45.552,397.535 45.606,397.317 45.305 C 397.145 45.067,397.038 44.376,397.080 43.771 C 397.133 43.006,396.927 42.478,396.404 42.038 C 395.800 41.530,395.745 41.344,396.126 41.093 C 396.487 40.854,396.498 40.746,396.170 40.636 C 395.933 40.557,395.739 40.069,395.739 39.551 C 395.739 38.965,395.551 38.609,395.240 38.609 C 394.966 38.609,394.847 38.439,394.975 38.231 C 395.226 37.825,394.105 35.478,393.660 35.478 C 393.512 35.478,393.391 35.165,393.391 34.783 C 393.391 34.400,393.178 34.087,392.917 34.087 C 392.615 34.087,392.479 33.763,392.542 33.191 C 392.612 32.551,392.504 32.347,392.164 32.477 C 391.855 32.596,391.755 32.483,391.881 32.156 C 391.997 31.853,391.865 31.652,391.548 31.652 C 391.189 31.652,391.081 31.426,391.207 30.942 C 391.332 30.465,391.241 30.265,390.930 30.333 C 390.676 30.389,390.459 30.200,390.450 29.913 C 390.424 29.153,389.471 27.826,388.951 27.826 C 388.705 27.826,388.410 27.357,388.296 26.783 C 388.181 26.209,387.950 25.739,387.783 25.739 C 387.615 25.739,387.478 25.509,387.478 25.228 C 387.478 24.934,387.272 24.796,386.992 24.904 C 386.724 25.007,386.387 24.900,386.242 24.666 C 386.074 24.394,386.124 24.330,386.381 24.489 C 387.317 25.067,386.885 24.379,384.948 22.208 C 384.418 21.613,383.842 20.874,383.670 20.566 C 383.280 19.868,382.861 20.217,383.159 20.992 C 383.279 21.305,383.542 21.460,383.742 21.336 C 383.963 21.199,384.003 21.278,383.845 21.534 C 383.648 21.853,383.422 21.812,382.930 21.367 C 382.571 21.042,382.362 20.640,382.465 20.472 C 382.737 20.033,382.280 18.783,381.847 18.783 C 381.622 18.783,381.650 18.987,381.920 19.313 C 382.162 19.604,382.277 19.926,382.175 20.028 C 382.073 20.130,381.785 19.753,381.535 19.189 C 381.265 18.578,380.622 17.983,379.947 17.718 C 378.825 17.278,378.084 16.348,378.854 16.348 C 379.073 16.348,378.951 16.058,378.583 15.704 C 377.983 15.128,377.888 15.119,377.677 15.617 C 377.542 15.933,377.430 15.986,377.416 15.740 C 377.402 15.501,376.746 14.640,375.956 13.827 C 375.167 13.013,374.649 12.583,374.806 12.870 C 375.052 13.321,375.010 13.326,374.493 12.907 C 374.165 12.641,373.802 12.517,373.687 12.632 C 373.571 12.747,373.139 12.339,372.725 11.725 C 372.311 11.111,371.797 10.609,371.583 10.609 C 371.369 10.609,370.855 10.178,370.441 9.652 C 369.595 8.577,368.578 8.332,368.947 9.293 C 369.102 9.697,368.857 9.594,368.189 8.975 C 367.647 8.472,367.030 8.100,366.819 8.147 C 366.608 8.195,366.552 8.168,366.696 8.088 C 367.306 7.747,366.888 7.236,366.119 7.383 C 365.516 7.499,365.332 7.412,365.462 7.072 C 365.580 6.764,365.464 6.669,365.127 6.799 C 364.843 6.907,364.368 6.753,364.070 6.455 C 363.772 6.157,363.299 5.913,363.019 5.913 C 362.738 5.913,362.415 5.668,362.301 5.369 C 362.186 5.070,361.953 4.911,361.784 5.016 C 361.394 5.257,359.304 4.233,359.304 3.801 C 359.304 3.623,359.148 3.478,358.957 3.478 C 358.765 3.478,358.609 3.713,358.609 4.000 C 358.609 4.287,358.457 4.522,358.272 4.522 C 358.086 4.522,358.025 4.287,358.135 4.000 C 358.274 3.638,358.111 3.478,357.602 3.478 C 357.199 3.478,356.870 3.322,356.870 3.130 C 356.870 2.939,356.704 2.783,356.501 2.783 C 356.299 2.783,356.213 2.913,356.312 3.072 C 356.411 3.232,356.270 3.362,356.000 3.362 C 355.730 3.362,355.589 3.232,355.688 3.072 C 355.787 2.913,355.623 2.783,355.325 2.783 C 355.027 2.783,354.783 2.659,354.783 2.509 C 354.783 2.358,354.128 2.209,353.327 2.177 C 352.470 2.143,351.756 1.912,351.590 1.616 C 351.426 1.322,350.787 1.113,350.054 1.113 C 349.364 1.113,348.628 0.941,348.417 0.730 C 347.883 0.196,347.024 0.238,347.351 0.783 C 347.550 1.114,347.493 1.125,347.110 0.830 C 346.323 0.222,349.208 0.250,272.609 0.116 L 199.652 -0.011 199.652 14.255 M31.271 9.412 C 31.021 9.567,30.674 9.606,30.501 9.499 C 30.328 9.392,30.391 9.178,30.642 9.023 C 30.892 8.868,31.239 8.829,31.412 8.936 C 31.585 9.043,31.522 9.257,31.271 9.412 M0.000 238.706 C 0.000 279.774,0.091 290.742,0.435 291.112 C 0.783 291.487,0.783 291.531,0.435 291.335 C -0.144 291.008,-0.144 292.227,0.435 292.851 C 0.783 293.226,0.783 293.270,0.435 293.074 C 0.196 292.939,0.000 292.994,0.000 293.197 C 0.000 293.399,0.137 293.565,0.305 293.565 C 0.473 293.565,0.529 294.286,0.430 295.166 C 0.308 296.248,0.391 296.855,0.688 297.039 C 0.934 297.191,1.118 297.950,1.106 298.771 C 1.091 299.904,1.199 300.189,1.587 300.040 C 1.911 299.915,2.102 300.089,2.130 300.533 C 2.193 301.520,2.237 301.684,2.581 302.228 C 2.793 302.563,2.765 302.639,2.489 302.468 C 1.923 302.118,1.985 302.406,2.783 303.826 C 3.165 304.507,3.478 305.238,3.478 305.450 C 3.478 305.663,3.752 306.062,4.087 306.338 C 4.667 306.816,4.667 306.830,4.087 306.648 C 3.752 306.543,3.478 306.608,3.478 306.794 C 3.478 306.979,3.713 307.130,4.000 307.130 C 4.287 307.130,4.541 307.287,4.565 307.478 C 4.589 307.670,4.648 307.983,4.696 308.174 C 4.743 308.365,4.802 308.922,4.826 309.412 C 4.850 309.901,5.018 310.210,5.200 310.098 C 5.381 309.986,5.634 310.446,5.760 311.121 C 5.887 311.796,6.130 312.348,6.300 312.348 C 6.470 312.348,6.609 312.656,6.609 313.033 C 6.609 313.469,6.781 313.651,7.085 313.535 C 7.425 313.404,7.533 313.609,7.462 314.256 C 7.397 314.848,7.593 315.305,8.029 315.577 C 8.396 315.806,8.696 316.347,8.696 316.779 C 8.696 317.532,9.173 317.852,9.479 317.304 C 9.559 317.161,9.577 317.239,9.519 317.478 C 9.461 317.717,9.555 318.265,9.728 318.695 C 9.981 319.326,10.047 319.356,10.065 318.849 C 10.077 318.503,10.250 318.320,10.449 318.444 C 10.648 318.567,10.710 318.987,10.586 319.377 C 10.435 319.851,10.489 320.008,10.745 319.849 C 10.957 319.718,11.130 319.795,11.130 320.021 C 11.130 320.246,11.639 320.879,12.261 321.427 C 12.883 321.975,13.196 322.426,12.957 322.429 C 12.717 322.432,12.522 322.610,12.522 322.823 C 12.522 323.045,12.831 323.131,13.245 323.022 C 13.752 322.890,13.915 322.971,13.791 323.295 C 13.688 323.563,13.920 323.838,14.342 323.948 C 14.988 324.117,15.015 324.208,14.579 324.745 C 14.308 325.078,14.272 325.240,14.498 325.105 C 14.724 324.969,15.014 325.028,15.142 325.236 C 15.270 325.444,15.712 325.763,16.123 325.945 C 16.761 326.229,16.726 326.248,15.887 326.082 C 15.047 325.915,14.971 325.959,15.365 326.385 C 15.619 326.659,15.943 326.812,16.087 326.726 C 16.230 326.639,16.348 326.745,16.348 326.961 C 16.348 327.380,17.194 328.348,17.561 328.348 C 17.682 328.348,17.669 328.167,17.532 327.946 C 17.378 327.697,17.437 327.639,17.685 327.793 C 17.906 327.929,18.087 328.267,18.087 328.542 C 18.087 328.818,18.338 329.043,18.646 329.043 C 19.018 329.043,19.133 329.232,18.989 329.607 C 18.819 330.049,18.934 330.128,19.523 329.974 C 20.061 329.834,20.167 329.885,19.899 330.154 C 19.505 330.547,19.650 330.762,21.025 331.826 C 21.395 332.113,21.588 332.163,21.452 331.937 C 21.317 331.711,21.389 331.413,21.613 331.275 C 21.868 331.117,21.927 331.174,21.772 331.425 C 21.636 331.645,21.699 331.826,21.913 331.826 C 22.127 331.826,22.205 331.984,22.085 332.176 C 21.966 332.369,22.113 332.620,22.411 332.735 C 22.709 332.849,22.876 333.066,22.783 333.217 C 22.569 333.563,23.606 333.983,24.027 333.722 C 24.199 333.616,24.236 333.799,24.110 334.129 C 23.934 334.588,24.016 334.677,24.457 334.508 C 24.815 334.370,25.004 334.447,24.952 334.708 C 24.907 334.940,25.141 335.085,25.473 335.030 C 25.892 334.959,26.013 335.092,25.870 335.464 C 25.719 335.858,25.894 336.000,26.529 336.000 C 27.404 336.000,28.345 336.756,27.956 337.146 C 27.839 337.262,28.153 337.460,28.652 337.585 C 29.152 337.711,29.474 337.953,29.368 338.124 C 29.263 338.295,29.420 338.435,29.719 338.435 C 30.017 338.435,30.261 338.591,30.261 338.783 C 30.261 338.974,30.502 339.130,30.797 339.130 C 31.092 339.130,31.669 339.443,32.080 339.826 C 32.491 340.209,33.110 340.522,33.457 340.522 C 33.803 340.522,34.087 340.678,34.087 340.870 C 34.087 341.061,34.333 341.217,34.634 341.217 C 34.934 341.217,35.424 341.461,35.722 341.759 C 36.020 342.057,36.470 342.222,36.723 342.125 C 37.001 342.018,37.112 342.131,37.005 342.410 C 36.888 342.715,37.189 342.924,37.892 343.028 C 38.478 343.114,38.957 343.045,38.957 342.876 C 38.957 342.706,39.116 342.666,39.310 342.786 C 39.504 342.906,39.573 343.150,39.463 343.328 C 39.353 343.506,39.586 343.652,39.979 343.652 C 40.373 343.652,40.696 343.784,40.696 343.944 C 40.696 344.105,41.150 344.209,41.706 344.176 C 42.406 344.134,42.663 344.254,42.544 344.566 C 42.428 344.868,42.609 344.970,43.094 344.876 C 43.492 344.800,44.043 344.963,44.319 345.238 C 44.935 345.854,45.336 345.891,45.038 345.304 C 44.917 345.065,45.055 345.161,45.345 345.517 C 45.746 346.009,46.216 346.131,47.306 346.027 C 48.540 345.910,48.654 345.953,48.129 346.337 C 47.601 346.723,47.738 346.783,49.151 346.783 C 50.083 346.783,50.783 346.943,50.783 347.157 C 50.783 347.382,51.400 347.493,52.337 347.435 C 53.191 347.383,53.998 347.448,54.130 347.580 C 54.262 347.712,87.372 347.822,127.707 347.824 L 201.043 347.829 201.043 334.288 C 201.043 321.684,201.001 320.736,200.435 320.588 C 199.855 320.436,199.855 320.427,200.435 320.388 C 201.054 320.347,201.229 319.954,200.815 319.539 C 200.689 319.413,200.346 319.505,200.052 319.742 C 199.627 320.087,199.571 320.086,199.780 319.739 C 199.988 319.392,185.714 319.304,128.870 319.304 C 81.510 319.304,57.770 319.188,57.913 318.957 C 58.043 318.747,57.576 318.609,56.737 318.609 C 55.971 318.609,55.249 318.452,55.130 318.261 C 55.012 318.070,54.455 317.913,53.893 317.913 C 53.330 317.913,52.870 317.757,52.870 317.565 C 52.870 317.374,52.704 317.217,52.501 317.217 C 52.299 317.217,52.232 317.413,52.352 317.652 C 52.473 317.891,52.185 317.634,51.712 317.081 C 51.114 316.382,50.637 316.131,50.147 316.259 C 49.645 316.390,49.496 316.305,49.628 315.961 C 49.749 315.646,49.566 315.478,49.101 315.478 C 48.709 315.478,48.292 315.322,48.174 315.130 C 48.056 314.939,47.655 314.783,47.284 314.783 C 46.913 314.783,46.609 314.626,46.609 314.435 C 46.609 314.243,46.351 314.087,46.035 314.087 C 45.720 314.087,44.940 313.550,44.302 312.893 C 43.659 312.231,42.715 311.650,42.180 311.589 C 41.487 311.509,41.246 311.308,41.320 310.870 C 41.395 310.418,41.171 310.250,40.450 310.221 C 39.863 310.196,39.719 310.117,40.086 310.021 C 40.879 309.814,40.025 308.854,38.978 308.776 C 38.552 308.743,38.407 308.589,38.592 308.362 C 38.765 308.150,38.658 307.789,38.334 307.490 C 37.843 307.037,37.807 307.047,38.010 307.577 C 38.312 308.364,38.070 308.331,37.205 307.466 C 36.815 307.076,36.593 306.600,36.712 306.408 C 36.831 306.216,36.290 305.500,35.511 304.817 C 34.732 304.133,34.167 303.456,34.256 303.312 C 34.345 303.168,34.109 302.770,33.731 302.427 C 33.353 302.085,33.043 301.389,33.043 300.881 C 33.043 300.373,32.693 299.581,32.265 299.121 C 31.836 298.661,31.539 297.972,31.603 297.589 C 31.678 297.150,31.356 296.597,30.730 296.088 C 29.993 295.488,29.918 295.337,30.435 295.495 C 31.086 295.695,31.092 295.677,30.522 295.207 C 30.187 294.932,29.913 294.306,29.913 293.817 C 29.913 293.328,29.765 292.875,29.583 292.812 C 29.402 292.748,29.208 291.913,29.152 290.957 C 29.097 290.000,28.931 289.129,28.784 289.021 C 28.637 288.914,28.517 265.872,28.517 237.819 L 28.517 186.812 14.259 186.790 L 0.000 186.769 0.000 238.706 M225.602 187.333 C 225.052 188.767,225.379 222.915,225.946 223.233 C 226.393 223.482,226.495 224.137,226.469 226.574 C 226.448 228.505,226.562 229.528,226.782 229.392 C 227.006 229.253,227.020 229.461,226.823 229.980 C 226.617 230.522,226.658 230.914,226.949 231.185 C 227.222 231.440,227.322 232.173,227.221 233.185 C 227.118 234.211,227.198 234.783,227.444 234.783 C 227.657 234.783,227.826 235.386,227.826 236.145 C 227.826 236.894,227.989 237.562,228.189 237.628 C 228.388 237.695,228.603 238.138,228.665 238.614 C 228.814 239.759,229.253 240.810,229.714 241.125 C 229.965 241.297,229.944 241.382,229.652 241.386 C 229.149 241.392,229.058 242.320,229.544 242.493 C 229.723 242.557,229.938 243.078,230.021 243.652 C 230.104 244.226,230.349 244.657,230.564 244.609 C 230.780 244.561,230.959 244.951,230.962 245.478 C 230.966 246.224,231.042 246.320,231.304 245.913 C 231.615 245.432,231.857 246.352,231.693 247.391 C 231.671 247.535,231.798 247.652,231.976 247.652 C 232.154 247.652,232.353 248.004,232.419 248.435 C 232.485 248.865,232.707 249.186,232.913 249.148 C 233.133 249.107,233.221 249.431,233.125 249.930 C 232.941 250.895,233.593 251.110,233.864 250.174 C 233.961 249.839,233.988 250.063,233.924 250.672 C 233.835 251.518,234.005 251.928,234.643 252.407 C 235.510 253.059,235.805 253.775,235.043 253.382 C 234.804 253.258,235.000 253.497,235.478 253.913 C 235.957 254.329,236.152 254.568,235.913 254.444 C 235.282 254.118,235.380 254.717,236.087 255.500 C 236.422 255.870,236.918 256.604,237.189 257.130 C 237.460 257.656,237.741 258.027,237.813 257.955 C 238.040 257.728,240.697 260.529,240.672 260.970 C 240.659 261.202,240.479 261.039,240.271 260.609 C 240.064 260.178,239.750 259.826,239.575 259.826 C 239.210 259.826,240.481 261.709,241.629 262.870 C 242.055 263.300,242.567 263.652,242.767 263.652 C 242.967 263.652,243.130 263.982,243.130 264.385 C 243.130 264.886,243.292 265.056,243.641 264.922 C 243.922 264.814,244.259 264.900,244.390 265.112 C 244.535 265.346,244.471 265.401,244.228 265.251 C 244.007 265.114,243.826 265.168,243.826 265.371 C 243.826 265.573,244.227 265.739,244.718 265.739 C 245.440 265.739,245.588 265.886,245.500 266.513 C 245.424 267.051,245.596 267.328,246.062 267.420 C 246.842 267.575,247.652 268.304,247.652 268.852 C 247.652 269.063,248.025 269.163,248.496 269.078 C 249.168 268.956,249.316 269.055,249.218 269.562 C 249.074 270.308,250.144 271.400,250.863 271.240 C 251.136 271.180,251.790 271.600,252.316 272.174 C 252.843 272.748,253.158 272.998,253.018 272.729 C 252.844 272.396,252.898 272.324,253.187 272.503 C 253.421 272.648,253.526 272.993,253.419 273.271 C 253.311 273.552,253.377 273.681,253.569 273.563 C 253.758 273.446,253.913 273.521,253.913 273.730 C 253.913 273.938,254.187 274.213,254.522 274.341 C 254.857 274.469,255.434 274.855,255.805 275.200 C 256.176 275.544,256.645 275.824,256.848 275.821 C 257.051 275.818,256.983 275.664,256.696 275.478 C 256.409 275.293,256.350 275.139,256.566 275.136 C 256.782 275.133,257.220 275.483,257.539 275.913 C 257.858 276.343,258.024 276.500,257.909 276.261 C 257.617 275.659,257.952 275.718,258.761 276.410 C 259.136 276.731,259.350 277.143,259.237 277.326 C 259.116 277.522,259.477 277.593,260.116 277.500 C 260.935 277.379,261.115 277.443,260.852 277.760 C 260.610 278.052,260.662 278.240,261.023 278.379 C 261.309 278.489,261.637 278.426,261.752 278.240 C 261.867 278.054,262.124 278.002,262.322 278.125 C 262.556 278.269,262.517 278.465,262.211 278.681 C 261.888 278.910,262.123 278.958,262.957 278.835 C 263.626 278.737,263.978 278.736,263.739 278.835 C 262.928 279.170,263.300 279.583,264.347 279.511 C 265.130 279.456,265.577 279.682,266.138 280.415 C 266.583 280.996,267.218 281.391,267.704 281.391 C 268.154 281.391,268.522 281.579,268.522 281.809 C 268.522 282.118,268.623 282.124,268.913 281.835 C 269.202 281.546,269.490 281.618,270.022 282.113 C 270.417 282.482,270.897 282.783,271.089 282.783 C 271.280 282.783,271.133 282.557,270.762 282.281 C 270.105 281.793,270.108 281.781,270.860 281.833 C 271.286 281.862,271.716 282.098,271.815 282.358 C 271.929 282.653,272.258 282.747,272.694 282.609 C 273.110 282.477,273.391 282.546,273.391 282.780 C 273.391 282.995,273.235 283.075,273.043 282.957 C 272.852 282.838,272.696 282.907,272.696 283.110 C 272.696 283.320,273.443 283.478,274.435 283.478 C 275.391 283.478,276.174 283.635,276.174 283.826 C 276.174 284.017,276.809 284.174,277.586 284.174 C 278.438 284.174,278.912 284.312,278.783 284.522 C 278.606 284.808,282.505 285.075,285.154 284.959 C 285.407 284.948,285.531 285.154,285.430 285.416 C 285.275 285.819,291.960 285.895,328.251 285.908 C 351.904 285.916,371.302 285.969,371.359 286.026 C 371.751 286.418,371.654 290.175,371.248 290.331 C 370.957 290.442,370.783 291.082,370.783 292.037 C 370.783 292.878,370.626 293.565,370.435 293.565 C 370.243 293.565,370.087 293.869,370.087 294.240 C 370.087 294.612,369.914 295.023,369.702 295.153 C 369.433 295.320,369.459 295.491,369.789 295.722 C 370.156 295.979,370.164 296.092,369.826 296.229 C 369.587 296.326,369.391 296.632,369.391 296.909 C 369.391 297.186,369.148 297.507,368.850 297.621 C 368.552 297.735,368.390 298.043,368.491 298.306 C 368.597 298.582,368.449 298.783,368.138 298.783 C 367.796 298.783,367.625 299.065,367.666 299.565 C 367.767 300.814,367.666 301.081,367.304 300.522 C 367.042 300.115,366.966 300.211,366.962 300.957 C 366.959 301.483,366.791 301.913,366.588 301.913 C 366.386 301.913,366.317 302.070,366.435 302.261 C 366.553 302.452,366.406 302.609,366.107 302.609 C 365.809 302.609,365.565 302.855,365.565 303.155 C 365.565 303.456,365.329 303.938,365.040 304.227 C 364.752 304.516,364.605 304.897,364.715 305.074 C 364.824 305.252,364.669 305.641,364.370 305.941 C 364.071 306.240,363.826 306.348,363.826 306.181 C 363.826 306.015,364.014 305.690,364.243 305.461 C 364.473 305.231,364.540 305.043,364.393 305.043 C 364.014 305.043,363.325 305.837,363.196 306.421 C 363.136 306.691,362.769 307.188,362.381 307.525 C 361.993 307.861,361.776 308.300,361.899 308.499 C 362.034 308.717,361.908 308.779,361.583 308.654 C 361.233 308.520,361.043 308.644,361.043 309.006 C 361.043 309.314,360.866 309.565,360.649 309.565 C 360.433 309.565,360.002 309.850,359.693 310.198 C 359.384 310.546,358.857 310.933,358.522 311.057 C 358.187 311.181,357.925 311.483,357.941 311.728 C 357.962 312.077,358.006 312.080,358.143 311.739 C 358.240 311.500,358.481 311.304,358.680 311.304 C 358.905 311.304,358.885 311.494,358.626 311.805 C 358.397 312.081,357.961 312.211,357.657 312.094 C 357.306 311.959,357.190 312.022,357.340 312.265 C 357.470 312.475,357.393 312.761,357.169 312.899 C 356.915 313.056,356.855 313.000,357.010 312.749 C 357.147 312.529,357.089 312.348,356.883 312.348 C 356.676 312.348,356.329 312.739,356.111 313.217 C 355.852 313.784,355.431 314.087,354.901 314.087 C 354.453 314.087,354.087 314.243,354.087 314.435 C 354.087 314.626,353.757 314.783,353.354 314.783 C 352.892 314.783,352.686 314.951,352.796 315.239 C 352.923 315.569,352.693 315.654,351.964 315.547 C 351.367 315.460,350.957 315.557,350.957 315.787 C 350.957 316.000,350.738 316.174,350.472 316.174 C 350.206 316.174,349.897 316.409,349.787 316.696 C 349.677 316.983,349.347 317.217,349.054 317.217 C 348.761 317.217,348.519 317.413,348.516 317.652 C 348.512 317.978,348.437 317.970,348.217 317.623 C 347.981 317.251,347.881 317.269,347.708 317.719 C 347.550 318.130,347.247 318.216,346.564 318.045 C 345.910 317.880,345.708 317.929,345.882 318.210 C 346.045 318.474,345.792 318.609,345.134 318.609 C 344.587 318.609,343.928 318.804,343.671 319.043 C 343.296 319.391,343.251 319.391,343.448 319.043 C 343.737 318.531,343.097 318.447,342.783 318.957 C 342.664 319.148,341.826 319.304,340.919 319.304 C 340.012 319.304,339.110 319.464,338.916 319.658 C 338.678 319.896,320.190 320.009,282.846 320.003 L 227.130 319.994 227.130 333.914 L 227.130 347.834 288.087 347.706 C 356.272 347.563,350.957 347.611,350.957 347.136 C 350.957 346.942,351.426 346.783,352.000 346.783 C 352.696 346.783,353.043 346.609,353.043 346.261 C 353.043 345.974,353.297 345.739,353.608 345.739 C 354.095 345.739,354.107 345.822,353.695 346.348 C 353.273 346.885,353.282 346.906,353.766 346.529 C 354.068 346.293,354.668 346.047,355.099 345.981 C 355.531 345.915,356.008 345.660,356.160 345.414 C 356.312 345.167,356.912 344.946,357.493 344.923 C 358.073 344.899,358.474 344.760,358.384 344.614 C 358.294 344.467,358.777 344.348,359.458 344.348 C 360.270 344.348,360.696 344.185,360.696 343.874 C 360.696 343.557,360.982 343.456,361.565 343.567 C 362.214 343.691,362.435 343.585,362.435 343.148 C 362.435 342.720,362.623 342.621,363.130 342.783 C 363.529 342.909,363.826 342.845,363.826 342.632 C 363.826 342.428,364.144 342.261,364.533 342.261 C 364.921 342.261,365.329 342.026,365.439 341.739 C 365.550 341.452,365.975 341.215,366.385 341.212 C 366.994 341.208,367.035 341.145,366.609 340.870 C 366.081 340.528,366.730 340.342,367.913 340.496 C 368.152 340.527,368.348 340.389,368.348 340.189 C 368.348 339.989,368.656 339.826,369.033 339.826 C 369.520 339.826,369.655 339.664,369.502 339.264 C 369.330 338.817,369.439 338.751,370.034 338.940 C 370.591 339.116,370.783 339.032,370.783 338.612 C 370.783 338.300,370.930 338.137,371.110 338.248 C 371.451 338.459,372.870 337.138,372.870 336.610 C 372.870 336.443,373.033 336.408,373.233 336.531 C 373.774 336.866,374.594 336.036,374.386 335.366 C 374.219 334.832,374.243 334.830,374.672 335.345 C 375.099 335.859,375.184 335.860,375.657 335.353 C 375.941 335.049,376.135 334.757,376.087 334.704 C 375.843 334.437,376.045 333.900,376.324 334.072 C 376.502 334.182,376.746 334.113,376.866 333.919 C 376.986 333.724,377.383 333.565,377.749 333.565 C 378.225 333.565,378.350 333.402,378.191 332.986 C 378.049 332.616,378.106 332.492,378.349 332.643 C 378.709 332.865,382.609 329.174,382.609 328.611 C 382.609 328.466,382.776 328.348,382.981 328.348 C 383.581 328.348,384.275 327.484,384.403 326.578 C 384.469 326.116,384.875 325.584,385.309 325.394 C 385.742 325.204,386.023 324.857,385.933 324.622 C 385.843 324.388,385.943 324.089,386.156 323.957 C 386.390 323.813,386.444 323.877,386.294 324.120 C 385.622 325.207,386.747 324.368,387.826 322.977 C 388.300 322.366,388.292 322.325,387.739 322.533 C 386.842 322.869,386.998 322.310,387.913 321.909 C 388.343 321.720,388.749 321.188,388.814 320.726 C 388.905 320.081,389.005 320.001,389.244 320.378 C 389.480 320.752,389.556 320.682,389.560 320.087 C 389.563 319.652,389.781 319.304,390.050 319.304 C 390.316 319.304,390.639 319.030,390.768 318.696 C 390.896 318.361,390.965 318.087,390.920 318.087 C 390.876 318.087,391.054 317.696,391.316 317.217 C 391.578 316.739,391.830 316.121,391.876 315.843 C 391.922 315.565,392.320 315.043,392.762 314.682 C 393.204 314.322,393.353 314.138,393.094 314.274 C 392.582 314.542,393.482 312.992,394.475 311.895 C 394.792 311.544,395.004 310.813,394.954 310.235 C 394.884 309.410,394.960 309.279,395.329 309.585 C 395.702 309.895,395.776 309.700,395.713 308.572 C 395.652 307.474,395.730 307.254,396.078 307.543 C 396.413 307.821,396.522 307.736,396.522 307.194 C 396.522 306.799,396.693 306.370,396.903 306.240 C 397.113 306.111,397.220 305.564,397.141 305.026 C 397.034 304.298,397.159 304.005,397.629 303.883 C 398.030 303.778,398.261 303.395,398.261 302.836 C 398.261 302.351,398.417 301.857,398.609 301.739 C 398.800 301.621,398.946 301.181,398.932 300.762 C 398.909 300.053,398.889 300.047,398.644 300.673 C 398.478 301.097,398.293 301.203,398.144 300.961 C 398.013 300.750,398.104 300.363,398.345 300.102 C 399.525 298.818,400.012 297.275,399.130 297.613 C 398.843 297.723,398.609 297.640,398.609 297.429 C 398.609 297.217,398.795 297.083,399.022 297.130 C 399.254 297.179,399.535 296.646,399.663 295.913 C 399.806 295.094,399.755 294.609,399.528 294.609 C 399.307 294.609,399.328 294.446,399.583 294.191 C 399.904 293.870,400.000 281.500,400.000 240.626 L 400.000 187.478 386.870 187.398 L 373.739 187.317 386.783 187.126 L 399.826 186.934 386.087 186.945 L 372.348 186.957 372.259 222.003 L 372.171 257.049 328.955 257.016 C 305.186 256.998,285.936 256.905,286.176 256.810 C 286.733 256.589,286.386 256.000,285.698 256.000 C 285.373 256.000,285.275 256.164,285.438 256.435 C 285.626 256.748,285.539 256.740,285.129 256.407 C 284.815 256.153,284.198 255.975,283.758 256.011 C 282.366 256.126,281.692 256.010,281.889 255.692 C 281.993 255.522,281.768 255.302,281.387 255.203 C 281.007 255.103,280.696 255.164,280.696 255.337 C 280.696 255.510,280.539 255.652,280.348 255.652 C 280.157 255.652,280.000 255.407,280.000 255.107 C 280.000 254.720,279.798 254.626,279.304 254.783 C 278.797 254.944,278.609 254.845,278.609 254.418 C 278.609 254.010,278.404 253.885,277.936 254.008 C 277.539 254.112,277.183 253.978,277.071 253.684 C 276.965 253.410,276.681 253.211,276.439 253.242 C 275.482 253.368,275.097 253.205,275.351 252.783 C 275.503 252.529,275.338 252.565,274.957 252.870 C 274.575 253.174,274.410 253.210,274.562 252.957 C 274.706 252.717,274.658 252.522,274.455 252.522 C 274.253 252.522,274.087 252.269,274.087 251.959 C 274.087 251.550,273.855 251.442,273.235 251.560 C 272.744 251.654,272.412 251.567,272.452 251.356 C 272.490 251.153,272.287 250.974,272.000 250.957 C 271.713 250.939,271.517 250.736,271.565 250.506 C 271.613 250.275,271.352 250.087,270.986 250.087 C 270.619 250.087,270.264 249.922,270.197 249.720 C 270.129 249.518,269.842 249.317,269.559 249.272 C 269.275 249.227,268.730 248.989,268.348 248.743 C 267.719 248.338,267.715 248.315,268.310 248.503 C 268.867 248.680,268.900 248.630,268.528 248.182 C 268.287 247.891,267.908 247.652,267.686 247.652 C 267.465 247.652,267.058 247.339,266.783 246.957 C 266.507 246.574,266.166 246.261,266.026 246.261 C 265.546 246.261,264.138 244.629,264.272 244.227 C 264.346 244.007,264.149 243.826,263.835 243.826 C 263.520 243.826,263.354 243.679,263.465 243.499 C 263.714 243.097,262.269 241.693,261.864 241.943 C 261.704 242.042,261.676 241.854,261.802 241.526 C 261.958 241.121,261.900 241.010,261.624 241.181 C 261.348 241.352,261.217 241.092,261.217 240.368 C 261.217 239.783,261.052 239.304,260.849 239.304 C 260.646 239.304,260.592 239.485,260.729 239.706 C 260.884 239.957,260.824 240.013,260.570 239.856 C 260.346 239.717,260.262 239.443,260.383 239.247 C 260.639 238.832,259.856 237.217,259.399 237.217 C 259.229 237.217,259.202 237.413,259.340 237.652 C 259.477 237.891,259.457 237.967,259.296 237.820 C 258.872 237.434,258.098 235.092,258.092 234.174 C 258.089 233.743,257.952 233.391,257.787 233.391 C 257.623 233.391,257.557 233.822,257.641 234.348 C 257.751 235.036,257.699 235.169,257.456 234.823 C 257.271 234.558,257.192 233.879,257.281 233.314 C 257.385 232.653,257.235 232.056,256.861 231.643 C 256.541 231.290,256.383 230.834,256.508 230.631 C 256.634 230.427,256.571 230.261,256.368 230.261 C 256.166 230.261,256.000 229.624,256.000 228.847 C 256.000 228.069,255.815 227.091,255.588 226.673 C 255.361 226.255,255.204 224.978,255.239 223.836 C 255.309 221.531,255.073 220.408,254.584 220.711 C 254.334 220.866,254.108 202.773,254.168 187.391 C 254.171 186.500,225.944 186.442,225.602 187.333 M247.043 187.391 C 243.361 187.447,237.335 187.447,233.652 187.391 C 229.970 187.335,232.983 187.288,240.348 187.288 C 247.713 187.288,250.726 187.335,247.043 187.391 M226.000 214.174 C 225.945 218.909,225.900 215.035,225.900 205.565 C 225.900 196.096,225.945 192.222,226.000 196.957 C 226.054 201.691,226.054 209.439,226.000 214.174 M380.698 330.358 C 380.146 330.879,379.920 330.993,380.195 330.613 C 381.031 329.459,381.384 329.107,381.547 329.263 C 381.632 329.345,381.250 329.838,380.698 330.358 " stroke="none" fill="#c42434" fill-rule="evenodd"></path><path id="path1" d="M367.304 8.103 C 367.304 8.169,367.696 8.563,368.174 8.978 C 368.652 9.394,369.043 9.597,369.043 9.429 C 369.043 9.261,368.652 8.867,368.174 8.554 C 367.696 8.240,367.304 8.038,367.304 8.103 M30.642 9.023 C 30.391 9.178,30.328 9.392,30.501 9.499 C 30.674 9.606,31.021 9.567,31.271 9.412 C 31.522 9.257,31.585 9.043,31.412 8.936 C 31.239 8.829,30.892 8.868,30.642 9.023 M29.388 9.745 C 29.268 9.939,29.024 10.008,28.846 9.898 C 28.667 9.788,28.522 9.864,28.522 10.066 C 28.522 10.629,29.464 10.505,29.691 9.913 C 29.918 9.321,29.718 9.210,29.388 9.745 M26.808 11.621 C 26.530 11.957,26.516 12.183,26.766 12.337 C 26.966 12.461,27.142 12.514,27.157 12.455 C 27.495 11.091,27.412 10.894,26.808 11.621 M373.114 12.406 C 373.211 12.659,373.437 12.775,373.617 12.664 C 373.797 12.553,374.158 12.639,374.419 12.857 C 374.775 13.152,374.959 13.146,375.153 12.833 C 375.310 12.579,375.265 12.505,375.040 12.644 C 374.835 12.770,374.607 12.690,374.532 12.464 C 374.456 12.239,374.067 12.031,373.666 12.001 C 373.193 11.966,373.000 12.108,373.114 12.406 M378.626 16.783 C 378.828 17.302,380.522 18.148,380.522 17.730 C 380.522 17.569,380.188 17.332,379.780 17.203 C 379.198 17.018,379.142 16.902,379.519 16.663 C 379.878 16.436,379.805 16.357,379.228 16.353 C 378.751 16.350,378.521 16.514,378.626 16.783 M19.478 17.445 C 19.478 17.946,20.008 18.005,20.428 17.551 C 20.774 17.177,20.723 17.098,20.167 17.140 C 19.788 17.168,19.478 17.305,19.478 17.445 M382.537 20.067 C 382.234 21.220,383.370 22.163,384.037 21.313 C 384.475 20.755,384.464 20.741,383.930 21.159 C 383.406 21.569,383.305 21.491,383.038 20.463 C 382.772 19.440,382.713 19.394,382.537 20.067 M51.809 30.460 C 50.907 30.960,51.419 31.049,52.870 30.645 C 53.523 30.463,53.605 30.351,53.200 30.195 C 52.903 30.081,52.277 30.200,51.809 30.460 M348.290 31.063 C 348.290 31.323,348.503 31.536,348.763 31.536 C 349.024 31.536,349.183 31.376,349.118 31.181 C 348.934 30.627,348.290 30.535,348.290 31.063 M42.783 35.751 C 42.783 36.104,42.948 36.112,43.565 35.791 C 44.667 35.218,44.672 35.195,43.675 35.253 C 43.184 35.281,42.783 35.506,42.783 35.751 M4.174 39.188 C 4.174 39.443,4.409 39.652,4.696 39.652 C 4.983 39.652,5.217 39.443,5.217 39.188 C 5.217 38.933,4.983 38.725,4.696 38.725 C 4.409 38.725,4.174 38.933,4.174 39.188 M34.923 43.184 C 34.770 43.433,34.828 43.491,35.077 43.338 C 35.298 43.201,35.478 43.264,35.478 43.478 C 35.478 43.692,35.637 43.769,35.832 43.649 C 36.221 43.408,35.965 42.783,35.478 42.783 C 35.310 42.783,35.060 42.963,34.923 43.184 M367.155 47.613 C 367.050 47.782,367.165 48.087,367.409 48.291 C 367.744 48.568,367.867 48.492,367.906 47.982 C 367.958 47.288,367.496 47.060,367.155 47.613 M398.743 50.787 C 398.765 51.172,398.939 51.485,399.130 51.483 C 399.455 51.479,399.489 51.320,399.357 50.435 C 399.257 49.772,398.704 50.090,398.743 50.787 M371.478 61.808 C 371.478 62.312,371.523 62.659,371.577 62.580 C 371.631 62.500,371.870 62.179,372.107 61.867 C 372.460 61.404,372.441 61.261,372.009 61.095 C 371.616 60.944,371.478 61.129,371.478 61.808 M373.865 187.222 C 374.011 187.368,379.990 187.446,387.152 187.395 L 400.174 187.304 386.887 187.130 C 379.579 187.035,373.719 187.076,373.865 187.222 M233.652 187.391 C 237.335 187.447,243.361 187.447,247.043 187.391 C 250.726 187.335,247.713 187.288,240.348 187.288 C 232.983 187.288,229.970 187.335,233.652 187.391 M225.900 205.565 C 225.900 215.035,225.945 218.909,226.000 214.174 C 226.054 209.439,226.054 201.691,226.000 196.957 C 225.945 192.222,225.900 196.096,225.900 205.565 M257.225 234.125 C 257.425 235.164,257.739 235.401,257.739 234.513 C 257.739 234.110,257.591 233.689,257.409 233.576 C 257.227 233.463,257.144 233.707,257.225 234.125 M268.275 248.278 C 267.970 248.472,268.038 248.660,268.519 248.961 C 268.940 249.224,269.263 249.252,269.396 249.036 C 269.512 248.849,269.353 248.696,269.043 248.696 C 268.734 248.696,268.577 248.539,268.696 248.348 C 268.951 247.934,268.844 247.917,268.275 248.278 M280.000 255.130 C 280.000 255.417,280.157 255.652,280.348 255.652 C 280.539 255.652,280.696 255.417,280.696 255.130 C 280.696 254.843,280.539 254.609,280.348 254.609 C 280.157 254.609,280.000 254.843,280.000 255.130 M281.902 255.671 C 281.817 255.808,282.058 256.002,282.439 256.102 C 282.854 256.211,283.130 256.111,283.130 255.851 C 283.130 255.392,282.162 255.250,281.902 255.671 M239.821 260.045 C 240.135 260.359,240.292 260.863,240.173 261.175 C 240.012 261.599,240.058 261.641,240.359 261.342 C 240.815 260.890,240.251 259.478,239.615 259.478 C 239.417 259.478,239.510 259.733,239.821 260.045 M244.522 266.261 C 244.760 266.548,245.092 266.783,245.260 266.783 C 245.428 266.783,245.565 266.548,245.565 266.261 C 245.565 265.961,245.251 265.739,244.827 265.739 C 244.210 265.739,244.160 265.825,244.522 266.261 M252.962 273.083 C 252.932 273.487,253.000 273.724,253.115 273.610 C 253.229 273.496,253.541 273.674,253.809 274.005 C 254.154 274.434,254.136 274.281,253.747 273.478 C 253.102 272.146,253.035 272.113,252.962 273.083 M270.762 282.281 C 271.599 282.903,272.033 282.925,271.806 282.334 C 271.711 282.088,271.286 281.862,270.860 281.833 C 270.108 281.781,270.105 281.793,270.762 282.281 M284.174 285.255 C 284.174 285.589,285.108 285.907,285.357 285.657 C 285.751 285.264,285.564 285.019,284.870 285.019 C 284.487 285.019,284.174 285.125,284.174 285.255 M398.139 300.337 C 398.032 300.618,398.075 300.929,398.237 301.028 C 398.398 301.128,398.611 300.898,398.711 300.518 C 398.918 299.723,398.434 299.569,398.139 300.337 M36.522 306.606 C 36.522 306.828,37.856 308.174,38.076 308.174 C 38.166 308.174,38.163 307.975,38.069 307.732 C 37.897 307.282,36.522 306.282,36.522 306.606 M358.143 311.500 C 358.281 311.858,358.173 311.944,357.778 311.793 C 357.470 311.675,357.217 311.656,357.217 311.752 C 357.217 312.188,358.250 312.259,358.592 311.846 C 358.877 311.502,358.844 311.336,358.461 311.189 C 358.114 311.056,358.011 311.156,358.143 311.500 M42.946 312.017 C 42.615 312.552,43.068 312.897,43.514 312.451 C 43.764 312.201,43.770 312.006,43.533 311.860 C 43.338 311.739,43.074 311.810,42.946 312.017 M12.089 321.622 C 12.329 321.719,12.438 321.942,12.329 322.117 C 12.221 322.292,12.396 322.435,12.718 322.435 C 13.198 322.435,13.225 322.342,12.870 321.913 C 12.631 321.626,12.260 321.404,12.044 321.419 C 11.800 321.436,11.817 321.513,12.089 321.622 M14.261 324.262 C 14.261 324.966,15.588 326.265,16.274 326.233 C 16.754 326.211,16.768 326.169,16.348 326.014 C 15.537 325.716,14.606 324.807,14.796 324.499 C 14.891 324.347,14.809 324.124,14.614 324.004 C 14.420 323.883,14.261 324.000,14.261 324.262 M381.043 329.517 C 379.996 330.737,379.639 331.315,380.206 330.873 C 380.510 330.635,380.876 330.557,381.018 330.699 C 381.159 330.840,381.223 330.729,381.159 330.451 C 381.096 330.172,381.226 329.938,381.449 329.929 C 381.672 329.920,381.986 329.771,382.145 329.596 C 382.311 329.415,382.262 329.379,382.030 329.512 C 381.807 329.639,381.572 329.601,381.508 329.428 C 381.444 329.254,381.235 329.294,381.043 329.517 M21.173 331.719 C 20.849 332.119,20.835 332.224,21.130 332.046 C 21.404 331.882,21.565 331.986,21.565 332.327 C 21.565 332.626,21.696 332.870,21.855 332.870 C 22.014 332.870,22.145 332.635,22.145 332.348 C 22.145 332.061,22.005 331.826,21.835 331.826 C 21.664 331.826,21.621 331.670,21.739 331.478 C 22.089 330.912,21.690 331.082,21.173 331.719 M374.356 335.349 C 374.465 335.660,374.372 336.130,374.149 336.392 C 373.926 336.655,374.049 336.597,374.422 336.263 C 374.989 335.757,375.023 335.585,374.630 335.220 C 374.245 334.863,374.195 334.887,374.356 335.349 M353.043 346.303 C 353.043 346.766,353.138 346.789,353.565 346.435 C 353.852 346.197,354.087 345.943,354.087 345.870 C 354.087 345.798,353.852 345.739,353.565 345.739 C 353.278 345.739,353.043 345.993,353.043 346.303 " stroke="none" fill="#c82434" fill-rule="evenodd"></path><path id="path2" d="M367.304 8.103 C 367.304 8.169,367.696 8.563,368.174 8.978 C 368.652 9.394,369.043 9.597,369.043 9.429 C 369.043 9.261,368.652 8.867,368.174 8.554 C 367.696 8.240,367.304 8.038,367.304 8.103 M30.642 9.023 C 30.391 9.178,30.328 9.392,30.501 9.499 C 30.674 9.606,31.021 9.567,31.271 9.412 C 31.522 9.257,31.585 9.043,31.412 8.936 C 31.239 8.829,30.892 8.868,30.642 9.023 M29.388 9.745 C 29.268 9.939,29.024 10.008,28.846 9.898 C 28.667 9.788,28.522 9.864,28.522 10.066 C 28.522 10.629,29.464 10.505,29.691 9.913 C 29.918 9.321,29.718 9.210,29.388 9.745 M26.808 11.621 C 26.530 11.957,26.516 12.183,26.766 12.337 C 26.966 12.461,27.142 12.514,27.157 12.455 C 27.495 11.091,27.412 10.894,26.808 11.621 M373.114 12.406 C 373.211 12.659,373.437 12.775,373.617 12.664 C 373.797 12.553,374.158 12.639,374.419 12.857 C 374.775 13.152,374.959 13.146,375.153 12.833 C 375.310 12.579,375.265 12.505,375.040 12.644 C 374.835 12.770,374.607 12.690,374.532 12.464 C 374.456 12.239,374.067 12.031,373.666 12.001 C 373.193 11.966,373.000 12.108,373.114 12.406 M378.626 16.783 C 378.828 17.302,380.522 18.148,380.522 17.730 C 380.522 17.569,380.188 17.332,379.780 17.203 C 379.198 17.018,379.142 16.902,379.519 16.663 C 379.878 16.436,379.805 16.357,379.228 16.353 C 378.751 16.350,378.521 16.514,378.626 16.783 M19.478 17.445 C 19.478 17.946,20.008 18.005,20.428 17.551 C 20.774 17.177,20.723 17.098,20.167 17.140 C 19.788 17.168,19.478 17.305,19.478 17.445 M382.537 20.067 C 382.234 21.220,383.370 22.163,384.037 21.313 C 384.475 20.755,384.464 20.741,383.930 21.159 C 383.406 21.569,383.305 21.491,383.038 20.463 C 382.772 19.440,382.713 19.394,382.537 20.067 M51.809 30.460 C 50.907 30.960,51.419 31.049,52.870 30.645 C 53.523 30.463,53.605 30.351,53.200 30.195 C 52.903 30.081,52.277 30.200,51.809 30.460 M348.290 31.063 C 348.290 31.323,348.503 31.536,348.763 31.536 C 349.024 31.536,349.183 31.376,349.118 31.181 C 348.934 30.627,348.290 30.535,348.290 31.063 M42.783 35.751 C 42.783 36.104,42.948 36.112,43.565 35.791 C 44.667 35.218,44.672 35.195,43.675 35.253 C 43.184 35.281,42.783 35.506,42.783 35.751 M4.174 39.188 C 4.174 39.443,4.409 39.652,4.696 39.652 C 4.983 39.652,5.217 39.443,5.217 39.188 C 5.217 38.933,4.983 38.725,4.696 38.725 C 4.409 38.725,4.174 38.933,4.174 39.188 M34.923 43.184 C 34.770 43.433,34.828 43.491,35.077 43.338 C 35.298 43.201,35.478 43.264,35.478 43.478 C 35.478 43.692,35.637 43.769,35.832 43.649 C 36.221 43.408,35.965 42.783,35.478 42.783 C 35.310 42.783,35.060 42.963,34.923 43.184 M367.155 47.613 C 367.050 47.782,367.165 48.087,367.409 48.291 C 367.744 48.568,367.867 48.492,367.906 47.982 C 367.958 47.288,367.496 47.060,367.155 47.613 M398.743 50.787 C 398.765 51.172,398.939 51.485,399.130 51.483 C 399.455 51.479,399.489 51.320,399.357 50.435 C 399.257 49.772,398.704 50.090,398.743 50.787 M371.478 61.808 C 371.478 62.312,371.523 62.659,371.577 62.580 C 371.631 62.500,371.870 62.179,372.107 61.867 C 372.460 61.404,372.441 61.261,372.009 61.095 C 371.616 60.944,371.478 61.129,371.478 61.808 M373.865 187.222 C 374.011 187.368,379.990 187.446,387.152 187.395 L 400.174 187.304 386.887 187.130 C 379.579 187.035,373.719 187.076,373.865 187.222 M233.652 187.391 C 237.335 187.447,243.361 187.447,247.043 187.391 C 250.726 187.335,247.713 187.288,240.348 187.288 C 232.983 187.288,229.970 187.335,233.652 187.391 M225.900 205.565 C 225.900 215.035,225.945 218.909,226.000 214.174 C 226.054 209.439,226.054 201.691,226.000 196.957 C 225.945 192.222,225.900 196.096,225.900 205.565 M257.225 234.125 C 257.425 235.164,257.739 235.401,257.739 234.513 C 257.739 234.110,257.591 233.689,257.409 233.576 C 257.227 233.463,257.144 233.707,257.225 234.125 M268.275 248.278 C 267.970 248.472,268.038 248.660,268.519 248.961 C 268.940 249.224,269.263 249.252,269.396 249.036 C 269.512 248.849,269.353 248.696,269.043 248.696 C 268.734 248.696,268.577 248.539,268.696 248.348 C 268.951 247.934,268.844 247.917,268.275 248.278 M280.000 255.130 C 280.000 255.417,280.157 255.652,280.348 255.652 C 280.539 255.652,280.696 255.417,280.696 255.130 C 280.696 254.843,280.539 254.609,280.348 254.609 C 280.157 254.609,280.000 254.843,280.000 255.130 M281.902 255.671 C 281.817 255.808,282.058 256.002,282.439 256.102 C 282.854 256.211,283.130 256.111,283.130 255.851 C 283.130 255.392,282.162 255.250,281.902 255.671 M239.821 260.045 C 240.135 260.359,240.292 260.863,240.173 261.175 C 240.012 261.599,240.058 261.641,240.359 261.342 C 240.815 260.890,240.251 259.478,239.615 259.478 C 239.417 259.478,239.510 259.733,239.821 260.045 M244.522 266.261 C 244.760 266.548,245.092 266.783,245.260 266.783 C 245.428 266.783,245.565 266.548,245.565 266.261 C 245.565 265.961,245.251 265.739,244.827 265.739 C 244.210 265.739,244.160 265.825,244.522 266.261 M252.962 273.083 C 252.932 273.487,253.000 273.724,253.115 273.610 C 253.229 273.496,253.541 273.674,253.809 274.005 C 254.154 274.434,254.136 274.281,253.747 273.478 C 253.102 272.146,253.035 272.113,252.962 273.083 M270.762 282.281 C 271.599 282.903,272.033 282.925,271.806 282.334 C 271.711 282.088,271.286 281.862,270.860 281.833 C 270.108 281.781,270.105 281.793,270.762 282.281 M284.174 285.255 C 284.174 285.589,285.108 285.907,285.357 285.657 C 285.751 285.264,285.564 285.019,284.870 285.019 C 284.487 285.019,284.174 285.125,284.174 285.255 M398.139 300.337 C 398.032 300.618,398.075 300.929,398.237 301.028 C 398.398 301.128,398.611 300.898,398.711 300.518 C 398.918 299.723,398.434 299.569,398.139 300.337 M36.522 306.606 C 36.522 306.828,37.856 308.174,38.076 308.174 C 38.166 308.174,38.163 307.975,38.069 307.732 C 37.897 307.282,36.522 306.282,36.522 306.606 M358.143 311.500 C 358.281 311.858,358.173 311.944,357.778 311.793 C 357.470 311.675,357.217 311.656,357.217 311.752 C 357.217 312.188,358.250 312.259,358.592 311.846 C 358.877 311.502,358.844 311.336,358.461 311.189 C 358.114 311.056,358.011 311.156,358.143 311.500 M42.946 312.017 C 42.615 312.552,43.068 312.897,43.514 312.451 C 43.764 312.201,43.770 312.006,43.533 311.860 C 43.338 311.739,43.074 311.810,42.946 312.017 M12.089 321.622 C 12.329 321.719,12.438 321.942,12.329 322.117 C 12.221 322.292,12.396 322.435,12.718 322.435 C 13.198 322.435,13.225 322.342,12.870 321.913 C 12.631 321.626,12.260 321.404,12.044 321.419 C 11.800 321.436,11.817 321.513,12.089 321.622 M14.261 324.262 C 14.261 324.966,15.588 326.265,16.274 326.233 C 16.754 326.211,16.768 326.169,16.348 326.014 C 15.537 325.716,14.606 324.807,14.796 324.499 C 14.891 324.347,14.809 324.124,14.614 324.004 C 14.420 323.883,14.261 324.000,14.261 324.262 M381.043 329.517 C 379.996 330.737,379.639 331.315,380.206 330.873 C 380.510 330.635,380.876 330.557,381.018 330.699 C 381.159 330.840,381.223 330.729,381.159 330.451 C 381.096 330.172,381.226 329.938,381.449 329.929 C 381.672 329.920,381.986 329.771,382.145 329.596 C 382.311 329.415,382.262 329.379,382.030 329.512 C 381.807 329.639,381.572 329.601,381.508 329.428 C 381.444 329.254,381.235 329.294,381.043 329.517 M21.173 331.719 C 20.849 332.119,20.835 332.224,21.130 332.046 C 21.404 331.882,21.565 331.986,21.565 332.327 C 21.565 332.626,21.696 332.870,21.855 332.870 C 22.014 332.870,22.145 332.635,22.145 332.348 C 22.145 332.061,22.005 331.826,21.835 331.826 C 21.664 331.826,21.621 331.670,21.739 331.478 C 22.089 330.912,21.690 331.082,21.173 331.719 M374.356 335.349 C 374.465 335.660,374.372 336.130,374.149 336.392 C 373.926 336.655,374.049 336.597,374.422 336.263 C 374.989 335.757,375.023 335.585,374.630 335.220 C 374.245 334.863,374.195 334.887,374.356 335.349 M353.043 346.303 C 353.043 346.766,353.138 346.789,353.565 346.435 C 353.852 346.197,354.087 345.943,354.087 345.870 C 354.087 345.798,353.852 345.739,353.565 345.739 C 353.278 345.739,353.043 345.993,353.043 346.303 " stroke="none" fill="#c82434" fill-rule="evenodd"></path><path id="path3" d="M367.304 8.103 C 367.304 8.169,367.696 8.563,368.174 8.978 C 368.652 9.394,369.043 9.597,369.043 9.429 C 369.043 9.261,368.652 8.867,368.174 8.554 C 367.696 8.240,367.304 8.038,367.304 8.103 M30.642 9.023 C 30.391 9.178,30.328 9.392,30.501 9.499 C 30.674 9.606,31.021 9.567,31.271 9.412 C 31.522 9.257,31.585 9.043,31.412 8.936 C 31.239 8.829,30.892 8.868,30.642 9.023 M29.388 9.745 C 29.268 9.939,29.024 10.008,28.846 9.898 C 28.667 9.788,28.522 9.864,28.522 10.066 C 28.522 10.629,29.464 10.505,29.691 9.913 C 29.918 9.321,29.718 9.210,29.388 9.745 M26.808 11.621 C 26.530 11.957,26.516 12.183,26.766 12.337 C 26.966 12.461,27.142 12.514,27.157 12.455 C 27.495 11.091,27.412 10.894,26.808 11.621 M373.114 12.406 C 373.211 12.659,373.437 12.775,373.617 12.664 C 373.797 12.553,374.158 12.639,374.419 12.857 C 374.775 13.152,374.959 13.146,375.153 12.833 C 375.310 12.579,375.265 12.505,375.040 12.644 C 374.835 12.770,374.607 12.690,374.532 12.464 C 374.456 12.239,374.067 12.031,373.666 12.001 C 373.193 11.966,373.000 12.108,373.114 12.406 M378.626 16.783 C 378.828 17.302,380.522 18.148,380.522 17.730 C 380.522 17.569,380.188 17.332,379.780 17.203 C 379.198 17.018,379.142 16.902,379.519 16.663 C 379.878 16.436,379.805 16.357,379.228 16.353 C 378.751 16.350,378.521 16.514,378.626 16.783 M19.478 17.445 C 19.478 17.946,20.008 18.005,20.428 17.551 C 20.774 17.177,20.723 17.098,20.167 17.140 C 19.788 17.168,19.478 17.305,19.478 17.445 M382.537 20.067 C 382.234 21.220,383.370 22.163,384.037 21.313 C 384.475 20.755,384.464 20.741,383.930 21.159 C 383.406 21.569,383.305 21.491,383.038 20.463 C 382.772 19.440,382.713 19.394,382.537 20.067 M51.809 30.460 C 50.907 30.960,51.419 31.049,52.870 30.645 C 53.523 30.463,53.605 30.351,53.200 30.195 C 52.903 30.081,52.277 30.200,51.809 30.460 M348.290 31.063 C 348.290 31.323,348.503 31.536,348.763 31.536 C 349.024 31.536,349.183 31.376,349.118 31.181 C 348.934 30.627,348.290 30.535,348.290 31.063 M42.783 35.751 C 42.783 36.104,42.948 36.112,43.565 35.791 C 44.667 35.218,44.672 35.195,43.675 35.253 C 43.184 35.281,42.783 35.506,42.783 35.751 M4.174 39.188 C 4.174 39.443,4.409 39.652,4.696 39.652 C 4.983 39.652,5.217 39.443,5.217 39.188 C 5.217 38.933,4.983 38.725,4.696 38.725 C 4.409 38.725,4.174 38.933,4.174 39.188 M34.923 43.184 C 34.770 43.433,34.828 43.491,35.077 43.338 C 35.298 43.201,35.478 43.264,35.478 43.478 C 35.478 43.692,35.637 43.769,35.832 43.649 C 36.221 43.408,35.965 42.783,35.478 42.783 C 35.310 42.783,35.060 42.963,34.923 43.184 M367.155 47.613 C 367.050 47.782,367.165 48.087,367.409 48.291 C 367.744 48.568,367.867 48.492,367.906 47.982 C 367.958 47.288,367.496 47.060,367.155 47.613 M398.743 50.787 C 398.765 51.172,398.939 51.485,399.130 51.483 C 399.455 51.479,399.489 51.320,399.357 50.435 C 399.257 49.772,398.704 50.090,398.743 50.787 M371.478 61.808 C 371.478 62.312,371.523 62.659,371.577 62.580 C 371.631 62.500,371.870 62.179,372.107 61.867 C 372.460 61.404,372.441 61.261,372.009 61.095 C 371.616 60.944,371.478 61.129,371.478 61.808 M373.865 187.222 C 374.011 187.368,379.990 187.446,387.152 187.395 L 400.174 187.304 386.887 187.130 C 379.579 187.035,373.719 187.076,373.865 187.222 M233.652 187.391 C 237.335 187.447,243.361 187.447,247.043 187.391 C 250.726 187.335,247.713 187.288,240.348 187.288 C 232.983 187.288,229.970 187.335,233.652 187.391 M225.900 205.565 C 225.900 215.035,225.945 218.909,226.000 214.174 C 226.054 209.439,226.054 201.691,226.000 196.957 C 225.945 192.222,225.900 196.096,225.900 205.565 M257.225 234.125 C 257.425 235.164,257.739 235.401,257.739 234.513 C 257.739 234.110,257.591 233.689,257.409 233.576 C 257.227 233.463,257.144 233.707,257.225 234.125 M268.275 248.278 C 267.970 248.472,268.038 248.660,268.519 248.961 C 268.940 249.224,269.263 249.252,269.396 249.036 C 269.512 248.849,269.353 248.696,269.043 248.696 C 268.734 248.696,268.577 248.539,268.696 248.348 C 268.951 247.934,268.844 247.917,268.275 248.278 M280.000 255.130 C 280.000 255.417,280.157 255.652,280.348 255.652 C 280.539 255.652,280.696 255.417,280.696 255.130 C 280.696 254.843,280.539 254.609,280.348 254.609 C 280.157 254.609,280.000 254.843,280.000 255.130 M281.902 255.671 C 281.817 255.808,282.058 256.002,282.439 256.102 C 282.854 256.211,283.130 256.111,283.130 255.851 C 283.130 255.392,282.162 255.250,281.902 255.671 M239.821 260.045 C 240.135 260.359,240.292 260.863,240.173 261.175 C 240.012 261.599,240.058 261.641,240.359 261.342 C 240.815 260.890,240.251 259.478,239.615 259.478 C 239.417 259.478,239.510 259.733,239.821 260.045 M244.522 266.261 C 244.760 266.548,245.092 266.783,245.260 266.783 C 245.428 266.783,245.565 266.548,245.565 266.261 C 245.565 265.961,245.251 265.739,244.827 265.739 C 244.210 265.739,244.160 265.825,244.522 266.261 M252.962 273.083 C 252.932 273.487,253.000 273.724,253.115 273.610 C 253.229 273.496,253.541 273.674,253.809 274.005 C 254.154 274.434,254.136 274.281,253.747 273.478 C 253.102 272.146,253.035 272.113,252.962 273.083 M270.762 282.281 C 271.599 282.903,272.033 282.925,271.806 282.334 C 271.711 282.088,271.286 281.862,270.860 281.833 C 270.108 281.781,270.105 281.793,270.762 282.281 M284.174 285.255 C 284.174 285.589,285.108 285.907,285.357 285.657 C 285.751 285.264,285.564 285.019,284.870 285.019 C 284.487 285.019,284.174 285.125,284.174 285.255 M398.139 300.337 C 398.032 300.618,398.075 300.929,398.237 301.028 C 398.398 301.128,398.611 300.898,398.711 300.518 C 398.918 299.723,398.434 299.569,398.139 300.337 M36.522 306.606 C 36.522 306.828,37.856 308.174,38.076 308.174 C 38.166 308.174,38.163 307.975,38.069 307.732 C 37.897 307.282,36.522 306.282,36.522 306.606 M358.143 311.500 C 358.281 311.858,358.173 311.944,357.778 311.793 C 357.470 311.675,357.217 311.656,357.217 311.752 C 357.217 312.188,358.250 312.259,358.592 311.846 C 358.877 311.502,358.844 311.336,358.461 311.189 C 358.114 311.056,358.011 311.156,358.143 311.500 M42.946 312.017 C 42.615 312.552,43.068 312.897,43.514 312.451 C 43.764 312.201,43.770 312.006,43.533 311.860 C 43.338 311.739,43.074 311.810,42.946 312.017 M12.089 321.622 C 12.329 321.719,12.438 321.942,12.329 322.117 C 12.221 322.292,12.396 322.435,12.718 322.435 C 13.198 322.435,13.225 322.342,12.870 321.913 C 12.631 321.626,12.260 321.404,12.044 321.419 C 11.800 321.436,11.817 321.513,12.089 321.622 M14.261 324.262 C 14.261 324.966,15.588 326.265,16.274 326.233 C 16.754 326.211,16.768 326.169,16.348 326.014 C 15.537 325.716,14.606 324.807,14.796 324.499 C 14.891 324.347,14.809 324.124,14.614 324.004 C 14.420 323.883,14.261 324.000,14.261 324.262 M381.043 329.517 C 379.996 330.737,379.639 331.315,380.206 330.873 C 380.510 330.635,380.876 330.557,381.018 330.699 C 381.159 330.840,381.223 330.729,381.159 330.451 C 381.096 330.172,381.226 329.938,381.449 329.929 C 381.672 329.920,381.986 329.771,382.145 329.596 C 382.311 329.415,382.262 329.379,382.030 329.512 C 381.807 329.639,381.572 329.601,381.508 329.428 C 381.444 329.254,381.235 329.294,381.043 329.517 M21.173 331.719 C 20.849 332.119,20.835 332.224,21.130 332.046 C 21.404 331.882,21.565 331.986,21.565 332.327 C 21.565 332.626,21.696 332.870,21.855 332.870 C 22.014 332.870,22.145 332.635,22.145 332.348 C 22.145 332.061,22.005 331.826,21.835 331.826 C 21.664 331.826,21.621 331.670,21.739 331.478 C 22.089 330.912,21.690 331.082,21.173 331.719 M374.356 335.349 C 374.465 335.660,374.372 336.130,374.149 336.392 C 373.926 336.655,374.049 336.597,374.422 336.263 C 374.989 335.757,375.023 335.585,374.630 335.220 C 374.245 334.863,374.195 334.887,374.356 335.349 M353.043 346.303 C 353.043 346.766,353.138 346.789,353.565 346.435 C 353.852 346.197,354.087 345.943,354.087 345.870 C 354.087 345.798,353.852 345.739,353.565 345.739 C 353.278 345.739,353.043 345.993,353.043 346.303 " stroke="none" fill="#c82434" fill-rule="evenodd"></path><path id="path4" d="M367.304 8.103 C 367.304 8.169,367.696 8.563,368.174 8.978 C 368.652 9.394,369.043 9.597,369.043 9.429 C 369.043 9.261,368.652 8.867,368.174 8.554 C 367.696 8.240,367.304 8.038,367.304 8.103 M30.642 9.023 C 30.391 9.178,30.328 9.392,30.501 9.499 C 30.674 9.606,31.021 9.567,31.271 9.412 C 31.522 9.257,31.585 9.043,31.412 8.936 C 31.239 8.829,30.892 8.868,30.642 9.023 M29.388 9.745 C 29.268 9.939,29.024 10.008,28.846 9.898 C 28.667 9.788,28.522 9.864,28.522 10.066 C 28.522 10.629,29.464 10.505,29.691 9.913 C 29.918 9.321,29.718 9.210,29.388 9.745 M26.808 11.621 C 26.530 11.957,26.516 12.183,26.766 12.337 C 26.966 12.461,27.142 12.514,27.157 12.455 C 27.495 11.091,27.412 10.894,26.808 11.621 M373.114 12.406 C 373.211 12.659,373.437 12.775,373.617 12.664 C 373.797 12.553,374.158 12.639,374.419 12.857 C 374.775 13.152,374.959 13.146,375.153 12.833 C 375.310 12.579,375.265 12.505,375.040 12.644 C 374.835 12.770,374.607 12.690,374.532 12.464 C 374.456 12.239,374.067 12.031,373.666 12.001 C 373.193 11.966,373.000 12.108,373.114 12.406 M378.626 16.783 C 378.828 17.302,380.522 18.148,380.522 17.730 C 380.522 17.569,380.188 17.332,379.780 17.203 C 379.198 17.018,379.142 16.902,379.519 16.663 C 379.878 16.436,379.805 16.357,379.228 16.353 C 378.751 16.350,378.521 16.514,378.626 16.783 M19.478 17.445 C 19.478 17.946,20.008 18.005,20.428 17.551 C 20.774 17.177,20.723 17.098,20.167 17.140 C 19.788 17.168,19.478 17.305,19.478 17.445 M382.537 20.067 C 382.234 21.220,383.370 22.163,384.037 21.313 C 384.475 20.755,384.464 20.741,383.930 21.159 C 383.406 21.569,383.305 21.491,383.038 20.463 C 382.772 19.440,382.713 19.394,382.537 20.067 M51.809 30.460 C 50.907 30.960,51.419 31.049,52.870 30.645 C 53.523 30.463,53.605 30.351,53.200 30.195 C 52.903 30.081,52.277 30.200,51.809 30.460 M348.290 31.063 C 348.290 31.323,348.503 31.536,348.763 31.536 C 349.024 31.536,349.183 31.376,349.118 31.181 C 348.934 30.627,348.290 30.535,348.290 31.063 M42.783 35.751 C 42.783 36.104,42.948 36.112,43.565 35.791 C 44.667 35.218,44.672 35.195,43.675 35.253 C 43.184 35.281,42.783 35.506,42.783 35.751 M4.174 39.188 C 4.174 39.443,4.409 39.652,4.696 39.652 C 4.983 39.652,5.217 39.443,5.217 39.188 C 5.217 38.933,4.983 38.725,4.696 38.725 C 4.409 38.725,4.174 38.933,4.174 39.188 M34.923 43.184 C 34.770 43.433,34.828 43.491,35.077 43.338 C 35.298 43.201,35.478 43.264,35.478 43.478 C 35.478 43.692,35.637 43.769,35.832 43.649 C 36.221 43.408,35.965 42.783,35.478 42.783 C 35.310 42.783,35.060 42.963,34.923 43.184 M367.155 47.613 C 367.050 47.782,367.165 48.087,367.409 48.291 C 367.744 48.568,367.867 48.492,367.906 47.982 C 367.958 47.288,367.496 47.060,367.155 47.613 M398.743 50.787 C 398.765 51.172,398.939 51.485,399.130 51.483 C 399.455 51.479,399.489 51.320,399.357 50.435 C 399.257 49.772,398.704 50.090,398.743 50.787 M371.478 61.808 C 371.478 62.312,371.523 62.659,371.577 62.580 C 371.631 62.500,371.870 62.179,372.107 61.867 C 372.460 61.404,372.441 61.261,372.009 61.095 C 371.616 60.944,371.478 61.129,371.478 61.808 M373.865 187.222 C 374.011 187.368,379.990 187.446,387.152 187.395 L 400.174 187.304 386.887 187.130 C 379.579 187.035,373.719 187.076,373.865 187.222 M233.652 187.391 C 237.335 187.447,243.361 187.447,247.043 187.391 C 250.726 187.335,247.713 187.288,240.348 187.288 C 232.983 187.288,229.970 187.335,233.652 187.391 M225.900 205.565 C 225.900 215.035,225.945 218.909,226.000 214.174 C 226.054 209.439,226.054 201.691,226.000 196.957 C 225.945 192.222,225.900 196.096,225.900 205.565 M257.225 234.125 C 257.425 235.164,257.739 235.401,257.739 234.513 C 257.739 234.110,257.591 233.689,257.409 233.576 C 257.227 233.463,257.144 233.707,257.225 234.125 M268.275 248.278 C 267.970 248.472,268.038 248.660,268.519 248.961 C 268.940 249.224,269.263 249.252,269.396 249.036 C 269.512 248.849,269.353 248.696,269.043 248.696 C 268.734 248.696,268.577 248.539,268.696 248.348 C 268.951 247.934,268.844 247.917,268.275 248.278 M280.000 255.130 C 280.000 255.417,280.157 255.652,280.348 255.652 C 280.539 255.652,280.696 255.417,280.696 255.130 C 280.696 254.843,280.539 254.609,280.348 254.609 C 280.157 254.609,280.000 254.843,280.000 255.130 M281.902 255.671 C 281.817 255.808,282.058 256.002,282.439 256.102 C 282.854 256.211,283.130 256.111,283.130 255.851 C 283.130 255.392,282.162 255.250,281.902 255.671 M239.821 260.045 C 240.135 260.359,240.292 260.863,240.173 261.175 C 240.012 261.599,240.058 261.641,240.359 261.342 C 240.815 260.890,240.251 259.478,239.615 259.478 C 239.417 259.478,239.510 259.733,239.821 260.045 M244.522 266.261 C 244.760 266.548,245.092 266.783,245.260 266.783 C 245.428 266.783,245.565 266.548,245.565 266.261 C 245.565 265.961,245.251 265.739,244.827 265.739 C 244.210 265.739,244.160 265.825,244.522 266.261 M252.962 273.083 C 252.932 273.487,253.000 273.724,253.115 273.610 C 253.229 273.496,253.541 273.674,253.809 274.005 C 254.154 274.434,254.136 274.281,253.747 273.478 C 253.102 272.146,253.035 272.113,252.962 273.083 M270.762 282.281 C 271.599 282.903,272.033 282.925,271.806 282.334 C 271.711 282.088,271.286 281.862,270.860 281.833 C 270.108 281.781,270.105 281.793,270.762 282.281 M284.174 285.255 C 284.174 285.589,285.108 285.907,285.357 285.657 C 285.751 285.264,285.564 285.019,284.870 285.019 C 284.487 285.019,284.174 285.125,284.174 285.255 M398.139 300.337 C 398.032 300.618,398.075 300.929,398.237 301.028 C 398.398 301.128,398.611 300.898,398.711 300.518 C 398.918 299.723,398.434 299.569,398.139 300.337 M36.522 306.606 C 36.522 306.828,37.856 308.174,38.076 308.174 C 38.166 308.174,38.163 307.975,38.069 307.732 C 37.897 307.282,36.522 306.282,36.522 306.606 M358.143 311.500 C 358.281 311.858,358.173 311.944,357.778 311.793 C 357.470 311.675,357.217 311.656,357.217 311.752 C 357.217 312.188,358.250 312.259,358.592 311.846 C 358.877 311.502,358.844 311.336,358.461 311.189 C 358.114 311.056,358.011 311.156,358.143 311.500 M42.946 312.017 C 42.615 312.552,43.068 312.897,43.514 312.451 C 43.764 312.201,43.770 312.006,43.533 311.860 C 43.338 311.739,43.074 311.810,42.946 312.017 M12.089 321.622 C 12.329 321.719,12.438 321.942,12.329 322.117 C 12.221 322.292,12.396 322.435,12.718 322.435 C 13.198 322.435,13.225 322.342,12.870 321.913 C 12.631 321.626,12.260 321.404,12.044 321.419 C 11.800 321.436,11.817 321.513,12.089 321.622 M14.261 324.262 C 14.261 324.966,15.588 326.265,16.274 326.233 C 16.754 326.211,16.768 326.169,16.348 326.014 C 15.537 325.716,14.606 324.807,14.796 324.499 C 14.891 324.347,14.809 324.124,14.614 324.004 C 14.420 323.883,14.261 324.000,14.261 324.262 M381.043 329.517 C 379.996 330.737,379.639 331.315,380.206 330.873 C 380.510 330.635,380.876 330.557,381.018 330.699 C 381.159 330.840,381.223 330.729,381.159 330.451 C 381.096 330.172,381.226 329.938,381.449 329.929 C 381.672 329.920,381.986 329.771,382.145 329.596 C 382.311 329.415,382.262 329.379,382.030 329.512 C 381.807 329.639,381.572 329.601,381.508 329.428 C 381.444 329.254,381.235 329.294,381.043 329.517 M21.173 331.719 C 20.849 332.119,20.835 332.224,21.130 332.046 C 21.404 331.882,21.565 331.986,21.565 332.327 C 21.565 332.626,21.696 332.870,21.855 332.870 C 22.014 332.870,22.145 332.635,22.145 332.348 C 22.145 332.061,22.005 331.826,21.835 331.826 C 21.664 331.826,21.621 331.670,21.739 331.478 C 22.089 330.912,21.690 331.082,21.173 331.719 M374.356 335.349 C 374.465 335.660,374.372 336.130,374.149 336.392 C 373.926 336.655,374.049 336.597,374.422 336.263 C 374.989 335.757,375.023 335.585,374.630 335.220 C 374.245 334.863,374.195 334.887,374.356 335.349 M353.043 346.303 C 353.043 346.766,353.138 346.789,353.565 346.435 C 353.852 346.197,354.087 345.943,354.087 345.870 C 354.087 345.798,353.852 345.739,353.565 345.739 C 353.278 345.739,353.043 345.993,353.043 346.303 " stroke="none" fill="#c82434" fill-rule="evenodd"></path></g></svg>